<svg width="151" height="101" viewBox="0 0 151 101" fill="none" xmlns="http://www.w3.org/2000/svg">
<path d="M74.8056 87.5903C74.8056 83.5485 78.1056 80.4048 82.0056 80.4048C85.9056 80.4048 89.2056 83.6982 89.2056 87.5903C89.2056 91.4824 85.9056 94.7757 82.0056 94.7757C78.1056 94.7757 74.8056 91.6321 74.8056 87.5903ZM104.356 87.5903C104.356 83.5485 107.656 80.4048 111.556 80.4048C115.606 80.4048 118.756 83.6982 118.756 87.5903C118.756 91.4824 115.456 94.7757 111.556 94.7757C107.656 94.9254 104.356 91.6321 104.356 87.5903ZM35.9556 87.5903C35.9556 83.5485 39.2556 80.4048 43.1556 80.4048C47.2056 80.4048 50.3556 83.6982 50.3556 87.5903C50.3556 91.4824 47.0556 94.7757 43.1556 94.7757C39.1056 94.9254 35.9556 91.6321 35.9556 87.5903ZM6.40558 87.5903C6.40558 83.5485 9.70558 80.4048 13.6056 80.4048C17.6556 80.4048 20.8056 83.6982 20.8056 87.5903C20.8056 91.4824 17.5056 94.7757 13.6056 94.7757C9.70558 94.9254 6.40558 91.6321 6.40558 87.5903ZM66.1056 74.8661H59.8056V100.165H66.1056V74.8661ZM20.9556 100.165H27.2556V74.8661H20.9556V76.9618C18.8556 75.4648 16.3056 74.5667 13.4556 74.5667C6.25558 74.5667 0.405579 80.4048 0.405579 87.5903C0.405579 94.9254 6.25558 100.614 13.4556 100.614C16.3056 100.614 18.8556 99.7157 20.9556 98.2187V100.165ZM118.906 100.165H125.206V74.8661H118.906V76.9618C116.806 75.4648 114.256 74.5667 111.406 74.5667C104.206 74.5667 98.3556 80.4048 98.3556 87.5903C98.3556 94.9254 104.206 100.614 111.406 100.614C114.256 100.614 116.806 99.7157 118.906 98.2187V100.165ZM127.456 91.9315C127.606 97.0211 131.956 100.614 139.306 100.614C145.306 100.614 150.256 98.069 150.256 92.3806C150.256 88.3387 148.006 86.0933 142.906 85.0454L138.856 84.2969C136.306 83.8478 134.506 83.2491 134.506 81.7521C134.506 80.1054 136.306 79.3569 138.406 79.3569C141.556 79.3569 142.906 81.0036 142.906 82.8H149.206C148.906 77.86 144.856 74.5667 138.406 74.5667C131.806 74.5667 127.906 78.1594 127.906 82.9497C127.906 88.6381 132.556 89.686 136.606 90.4345L139.906 91.0333C142.306 91.4824 143.356 92.2309 143.356 93.5781C143.356 94.7757 142.156 96.123 139.306 96.123C135.106 96.123 133.906 94.0272 133.756 92.0812H127.456V91.9315ZM50.3556 66.1836V76.8121C48.2556 75.3151 45.7056 74.417 42.8556 74.417C35.6556 74.417 29.8056 80.2551 29.8056 87.4406C29.8056 94.7757 35.6556 100.464 42.8556 100.464C45.7056 100.464 48.2556 99.566 50.3556 98.069V99.8654H56.6556V66.1836H50.3556ZM89.3556 66.1836V76.8121C87.2556 75.3151 84.7056 74.417 81.8556 74.417C74.6556 74.417 68.8056 80.2551 68.8056 87.4406C68.8056 94.7757 74.6556 100.464 81.8556 100.464C84.7056 100.464 87.2556 99.566 89.3556 98.069V99.8654H95.6556V66.1836H89.3556ZM16.6056 58.6988L20.9556 66.1836H50.3556L38.6556 45.9746L16.6056 58.6988ZM66.1056 72.4709V66.1836H89.3556L64.6056 23.5201L42.5556 36.0946L59.8056 66.1836V72.4709H66.1056ZM98.6556 66.1836H128.206L90.1056 0.317139L68.0556 13.0414L98.6556 66.1836Z" fill="#333333"/>
</svg>
