<svg width="180" height="22" viewBox="0 0 180 22" fill="none" xmlns="http://www.w3.org/2000/svg">
<path d="M162.015 10.0389V5.47373L159.417 9.15443L155.107 7.74207L157.804 11.4513L155.15 15.1463L159.417 13.7339L162.015 17.4432V12.8779L166.368 11.4656L162.015 10.0389Z" fill="#333333"/>
<path d="M170.436 0.965576H162.229L171.792 11.4656L162.229 21.9656H170.436L179.999 11.4656L170.436 0.965576ZM9.29122 7.11435C10.5901 7.11435 11.8604 7.74207 12.7168 8.78351L13.0308 9.1687L17.0273 6.4153L16.6705 5.97305C14.9006 3.76177 12.203 2.49207 9.29122 2.49207C4.18139 2.4778 -0.000671387 6.48664 -0.000671387 11.38C-0.000671387 16.2733 4.18139 20.2679 9.29122 20.2679C12.1744 20.2679 14.8578 19.0125 16.6277 16.844L16.9845 16.4017L12.988 13.6483L12.674 14.0335C11.8033 15.0892 10.5758 15.6884 9.27694 15.6884C6.90758 15.6884 4.89505 13.7197 4.89505 11.3942C4.90933 9.06884 6.92186 7.11435 9.29122 7.11435ZM52.2823 12.45L45.0457 2.97713H40.4355V19.7258H44.903V10.3528L51.6542 19.74H56.7498V2.97713H52.2823V12.45ZM69.4815 14.9038C69.4815 15.0322 69.296 15.0607 69.2103 15.0607C69.139 15.0607 69.0105 15.0322 68.9391 14.8752L65.2281 2.96286H60.0897L65.5707 19.7115H72.8786L78.3595 2.97713H73.2211L69.4815 14.9038ZM111.102 12.8922C112.886 11.865 113.914 9.98188 113.757 7.92753C113.557 5.13134 111.117 2.99139 108.219 2.99139H99.6552V19.74H104.123V13.7197H106.135C106.335 13.7197 106.521 13.7482 106.649 13.9194L109.532 19.7543H114.556C114.571 19.7543 111.102 12.8922 111.102 12.8922ZM108.076 9.22577H104.137V7.44248H108.076C108.619 7.44248 109.061 7.79914 109.061 8.34126C109.061 8.86911 108.619 9.22577 108.076 9.22577ZM135.866 19.7258H149.283V15.2604H140.348V13.2489H148.398V9.22577H140.348V7.44248H149.283V2.97713H135.866V19.7258ZM125.761 9.2971C123.363 8.75498 122.678 8.39832 122.678 7.62794V7.58514C122.678 6.95742 123.149 6.47237 124.305 6.47237C125.847 6.47237 127.103 6.95742 128.773 7.97033L131.456 4.78895C129.572 3.29098 127.317 2.49207 124.391 2.49207C120.237 2.49207 117.754 4.81748 117.754 8.0274V8.0702C117.754 11.6225 120.68 12.6782 124.362 13.4914C126.703 14.0335 127.36 14.433 127.36 15.1463V15.1891C127.36 15.9309 126.532 16.3732 125.233 16.3732C123.22 16.3732 121.251 15.6599 119.552 14.2903L116.854 17.486C118.981 19.3834 122.064 20.3392 125.119 20.3392C129.315 20.3392 132.27 18.2421 132.27 14.704V14.6612C132.284 11.437 129.743 10.1673 125.761 9.2971ZM27.8893 2.50634C22.8794 2.50634 18.8115 6.5009 18.8115 11.3942C18.8115 16.3019 22.8794 20.2822 27.8893 20.2822C32.8992 20.2822 36.9671 16.2876 36.9671 11.3942C36.9671 6.48664 32.8992 2.50634 27.8893 2.50634ZM27.8893 15.6456C25.5485 15.6456 23.6358 13.7482 23.6358 11.3942C23.6358 9.0403 25.5342 7.14289 27.8893 7.14289C30.2444 7.14289 32.1427 9.0403 32.1427 11.3942C32.1427 13.7482 30.2444 15.6456 27.8893 15.6456ZM81.5567 19.7258H94.9736V15.2604H86.0385V13.2489H94.0886V9.22577H86.0385V7.44248H94.9736V2.97713H81.5567V19.7258Z" fill="#333333"/>
</svg>
