<svg width="767" height="626" viewBox="0 0 767 626" fill="none" xmlns="http://www.w3.org/2000/svg">
<g opacity="0.9">
<path d="M71.1475 0.950806L71.1476 624.982" stroke="#9A9A9A" stroke-width="0.44"/>
<path d="M99.5474 0.950806L99.5475 624.982" stroke="#9A9A9A" stroke-width="0.44"/>
<path d="M127.947 0.950806L127.947 624.982" stroke="#9A9A9A" stroke-width="0.44"/>
<path d="M156.347 0.950806L156.348 624.982" stroke="#9A9A9A" stroke-width="0.44"/>
<path d="M184.747 0.950806L184.747 624.982" stroke="#9A9A9A" stroke-width="0.44"/>
<path d="M213.147 0.950806L213.147 624.982" stroke="#9A9A9A" stroke-width="0.44"/>
<path d="M241.547 0.950806L241.547 624.982" stroke="#9A9A9A" stroke-width="0.44"/>
<path d="M269.947 0.950806L269.947 624.982" stroke="#9A9A9A" stroke-width="0.44"/>
<path d="M298.347 0.950806L298.347 624.982" stroke="#9A9A9A" stroke-width="0.44"/>
<path d="M326.747 0.950806L326.747 624.982" stroke="#9A9A9A" stroke-width="0.44"/>
<path d="M355.147 0.950806L355.147 624.982" stroke="#9A9A9A" stroke-width="0.44"/>
<path d="M383.547 0.950806L383.547 624.982" stroke="#9A9A9A" stroke-width="0.44"/>
<path d="M411.947 0.950806L411.947 624.982" stroke="#9A9A9A" stroke-width="0.44"/>
<path d="M440.347 0.950806L440.347 624.982" stroke="#9A9A9A" stroke-width="0.44"/>
<path d="M468.747 0.950806L468.747 624.982" stroke="#9A9A9A" stroke-width="0.44"/>
<path d="M497.147 0.950806L497.147 624.982" stroke="#9A9A9A" stroke-width="0.44"/>
<path d="M525.547 0.950806L525.547 624.982" stroke="#9A9A9A" stroke-width="0.44"/>
<path d="M553.947 0.950806L553.947 624.982" stroke="#9A9A9A" stroke-width="0.44"/>
<path d="M582.347 0.950806L582.347 624.982" stroke="#9A9A9A" stroke-width="0.44"/>
<path d="M610.747 0.950806L610.747 624.982" stroke="#9A9A9A" stroke-width="0.44"/>
<path d="M639.147 0.950806L639.147 624.982" stroke="#9A9A9A" stroke-width="0.44"/>
<path d="M667.547 0.950806L667.547 624.982" stroke="#9A9A9A" stroke-width="0.44"/>
<path d="M695.947 0.950806L695.947 624.982" stroke="#9A9A9A" stroke-width="0.44"/>
<path d="M695.563 1.00642L71.5319 1.00642" stroke="#9A9A9A" stroke-width="0.44"/>
<path d="M695.563 33.8443L71.5319 33.8443" stroke="#9A9A9A" stroke-width="0.44"/>
<path d="M695.563 66.6822L71.5319 66.6822" stroke="#9A9A9A" stroke-width="0.44"/>
<path d="M695.563 99.5201L71.5319 99.5201" stroke="#9A9A9A" stroke-width="0.44"/>
<path d="M695.563 132.358L71.5319 132.358" stroke="#9A9A9A" stroke-width="0.44"/>
<path d="M695.563 165.196L71.5319 165.196" stroke="#9A9A9A" stroke-width="0.44"/>
<path d="M695.563 198.034L71.5319 198.034" stroke="#9A9A9A" stroke-width="0.44"/>
<path d="M695.563 230.872L71.5319 230.872" stroke="#9A9A9A" stroke-width="0.44"/>
<path d="M695.563 263.71L71.5319 263.71" stroke="#9A9A9A" stroke-width="0.44"/>
<path d="M695.563 296.547L71.5319 296.547" stroke="#9A9A9A" stroke-width="0.44"/>
<path d="M695.563 329.385L71.5319 329.385" stroke="#9A9A9A" stroke-width="0.44"/>
<path d="M695.563 362.223L71.5319 362.223" stroke="#9A9A9A" stroke-width="0.44"/>
<path d="M695.563 395.061L71.5319 395.061" stroke="#9A9A9A" stroke-width="0.44"/>
<path d="M695.563 427.899L71.5319 427.899" stroke="#9A9A9A" stroke-width="0.44"/>
<path d="M695.563 460.737L71.5319 460.737" stroke="#9A9A9A" stroke-width="0.44"/>
<path d="M695.563 493.575L71.5319 493.575" stroke="#9A9A9A" stroke-width="0.44"/>
<path d="M695.563 526.413L71.5319 526.413" stroke="#9A9A9A" stroke-width="0.44"/>
<path d="M695.563 559.251L71.5319 559.251" stroke="#9A9A9A" stroke-width="0.44"/>
<path d="M695.563 592.089L71.5319 592.089" stroke="#9A9A9A" stroke-width="0.44"/>
<path d="M695.563 624.926L71.5319 624.926" stroke="#9A9A9A" stroke-width="0.44"/>
</g>
</svg>
