<svg width="45" height="89" viewBox="0 0 45 89" fill="none" xmlns="http://www.w3.org/2000/svg">
<path d="M44.3524 7.25925C44.1945 7.41724 44.1155 7.57523 43.9575 7.73322L38.3489 13.4998L38.1909 13.6578C38.0329 13.8158 38.0329 13.9738 38.1909 14.2107C39.6128 16.6596 40.4817 19.3454 40.7977 22.1102C41.4297 27.8768 40.0078 33.0114 36.453 37.5141C33.4512 41.3848 29.5015 43.8336 24.7619 44.8605C22.629 45.3345 20.4172 45.4135 18.2053 45.1765C14.5716 44.7815 11.3328 43.4386 8.41004 41.2268C4.22334 38.067 1.61653 33.8013 0.510613 28.5877C0.115641 26.6129 0.036647 24.717 0.194636 22.7421C0.589607 18.2395 2.32748 14.2107 5.32926 10.735C8.25205 7.41724 11.7278 5.28439 15.9145 4.33646C17.9684 3.8625 20.1012 3.70451 22.155 3.8625C25.1568 4.09948 28.0796 5.04741 30.6864 6.6273C31.0024 6.86428 31.1604 6.70629 31.3974 6.46931L37.006 0.78172C37.164 0.623731 37.243 0.465743 37.4799 0.22876L44.3524 7.25925ZM31.6344 24.875C31.7924 18.2395 26.6577 13.3418 20.8121 13.1838C14.2556 13.0258 9.35797 18.5554 9.35797 24.559C9.35797 30.7206 14.4136 36.0132 20.4962 35.8552C26.4997 35.9342 31.4764 30.8785 31.6344 24.875ZM40.2447 71.0866C40.2447 76.6952 40.2447 82.3038 40.2447 87.9124V88.7024H30.3705V87.9914C30.3705 82.1458 30.3705 76.2213 30.3705 70.3757C30.3705 67.2949 29.3435 64.6091 27.1317 62.4763C25.7098 61.0544 23.8139 60.1854 21.8391 59.9484C19.2323 59.5535 16.7834 60.2644 14.6506 61.8443C12.5177 63.5032 11.2538 65.715 10.8589 68.4008C10.6219 69.6647 10.6219 71.0076 10.6219 72.2715C10.6219 77.4852 10.6219 82.6988 10.6219 87.9124V88.6234H0.82659V87.9914C0.82659 81.6719 0.747596 75.2733 0.82659 68.9538C0.905584 65.636 1.93251 62.3973 3.67038 59.4745C6.59317 54.7348 10.7009 51.575 16.1515 50.3111C17.8894 49.9162 19.6272 49.7582 21.3651 49.8372C26.7367 50.0742 31.3974 52.286 35.0311 56.3937C37.6379 59.3955 39.2968 62.7922 39.8498 66.8209C40.0868 68.2428 40.2447 69.6647 40.2447 71.0866Z" fill="#333333"/>
</svg>
