<svg width="151" height="75" viewBox="0 0 151 75" fill="none" xmlns="http://www.w3.org/2000/svg">
<path d="M81.2968 0.787423C80.8089 0.857311 80.321 2.6045 79.3451 3.58292C78.6481 4.28179 77.8117 4.28179 77.3237 5.05056C77.1146 5.33011 77.2541 5.88921 77.0449 6.37842C76.6267 7.42673 75.3024 7.5665 75.3024 8.61482C75.3024 9.8029 76.4873 10.0825 77.4632 10.9211C78.2299 11.62 78.3693 12.1092 79.2057 12.3887C79.9725 12.6683 81.1574 11.8296 82.2029 12.1092C83.1091 12.3887 83.9455 12.5984 84.1546 13.437C84.3637 14.2757 84.1546 15.5337 83.1091 15.3939C82.6908 15.3939 81.1574 14.8348 79.3451 14.9746C76.9752 15.2541 74.3962 15.953 74.1871 18.5388C74.1174 20.0065 75.86 21.6139 77.4632 21.3343C78.6481 21.1247 78.0208 19.657 78.7178 19.028C79.6239 18.1894 84.3637 22.0332 88.8247 22.0332C90.7066 22.0332 92.1007 21.544 93.4948 20.0764C93.5645 20.0065 93.7736 19.657 93.9827 19.657C94.1918 19.657 94.4706 19.8667 94.5403 19.9366C98.1648 22.802 100.883 28.5327 113.987 28.6026C115.869 28.6026 117.96 29.4413 119.703 31.0487C121.236 32.5163 122.143 34.6828 122.979 36.9192C124.373 40.2738 126.673 43.5585 130.298 47.1228C130.507 47.3325 133.434 49.6387 133.713 49.7086C133.713 49.7086 133.992 50.2677 133.922 50.5473C133.853 52.7837 133.504 59.0735 138.314 59.3531C139.498 59.423 139.22 58.5843 139.22 58.0252C139.22 56.9769 139.011 55.7888 139.638 54.7405C140.405 53.203 137.965 52.5041 137.965 49.1495C138.035 46.6336 135.944 47.0529 134.828 45.1659C134.271 44.1176 133.643 43.4188 133.643 42.0909C133.853 34.4732 131.971 29.4413 131.134 28.2532C130.437 27.2748 129.74 26.9952 130.437 26.506C134.41 23.9202 135.316 21.4741 135.316 21.4741C137.477 16.582 139.289 12.0393 141.938 10.0825C142.426 9.66313 143.82 8.61482 144.656 8.26538C147.096 7.07729 148.351 6.44831 149.048 5.74943C150.093 4.70112 151.069 2.39483 150.024 0.997085C148.63 -0.7501 146.399 0.577761 145.354 1.27664C138.035 5.60966 136.989 13.1575 134.48 17.4905C132.459 20.9849 129.252 23.5707 126.325 23.7804C124.094 23.99 121.724 23.5008 119.424 22.4525C113.709 19.9366 110.572 16.7916 109.805 16.1627C108.272 14.9746 96.3526 3.30337 86.6639 2.81416C86.6639 2.81416 85.479 0.368099 85.2001 0.368099C84.5031 0.298211 83.7364 1.83573 83.2485 2.0454C82.6211 2.53461 81.7847 0.647648 81.2968 0.787423ZM38.7782 70.2555C37.8721 70.2555 37.175 69.4868 37.1053 68.5782V38.5266H27.0682V71.6533C27.0682 73.3306 28.4622 74.6584 29.9957 74.6584H47.3516C49.0245 74.6584 50.2791 73.3306 50.2791 71.6533V38.5965H40.4511V68.6481C40.3814 69.5567 39.6843 70.2555 38.7782 70.2555ZM72.0961 38.5965H56.9706C55.228 38.5965 53.7643 40.0642 53.7643 41.8113V74.6584H63.662V44.6068C63.662 43.6284 64.4288 42.9295 65.3349 42.9295C66.3107 42.9295 67.0078 43.6284 67.0078 44.6068V74.7283H76.9055V44.4671C76.9055 43.6284 77.6723 42.7898 78.5784 42.7898C79.4845 42.7898 80.2513 43.5585 80.2513 44.4671V74.5885H90.149V41.7415C90.149 39.9244 88.6853 38.5266 86.9427 38.5266H72.0961V38.5965ZM20.4464 65.5731H10.4092V74.6584H0.511475V38.5965H20.5858C22.3284 38.5965 23.7921 40.0642 23.7921 41.8812V62.3582C23.7921 64.1753 22.3284 65.5731 20.4464 65.5731ZM13.8247 44.6068C13.8247 43.6284 13.0579 42.8597 12.1518 42.8597H10.4789V61.1003H12.1518C13.0579 61.1003 13.8247 60.4014 13.8247 59.3531V44.6068ZM106.111 74.7982V65.7827H102.696V74.7982H92.728V42.0909C92.728 40.2738 94.1918 38.946 95.9343 38.946H112.733C114.475 38.946 115.939 40.4136 115.939 42.0909V74.7982H106.111ZM106.111 61.3798V44.8864C106.111 44.0477 105.344 43.279 104.438 43.279C103.532 43.279 102.765 44.0477 102.765 44.8864V61.4497L106.111 61.3798Z" fill="#333333"/>
<path d="M125 74.3789C122.282 74.3789 120.121 72.2124 120.121 69.4868C120.121 66.7612 122.282 64.5947 125 64.5947C127.719 64.5947 129.88 66.7612 129.88 69.4868C129.88 72.2124 127.719 74.3789 125 74.3789ZM125 65.3634C122.7 65.3634 120.888 67.2504 120.888 69.4868C120.888 71.7232 122.77 73.6101 125 73.6101C127.231 73.6101 129.113 71.7232 129.113 69.4868C129.113 67.2504 127.301 65.3634 125 65.3634Z" fill="#333333"/>
<path d="M123.537 67.46H125.14C125.488 67.46 125.767 67.5299 125.976 67.7396C126.255 67.9492 126.394 68.2288 126.394 68.6481C126.394 69.2072 126.116 69.6265 125.628 69.8362L126.603 71.7232H125.837L125 69.9061H124.234V71.7232H123.606V67.46H123.537ZM124.164 69.347H125.14C125.349 69.347 125.558 69.2771 125.697 69.1373C125.837 68.9976 125.906 68.8578 125.906 68.6481C125.906 68.4385 125.837 68.2288 125.697 68.1589C125.558 68.089 125.419 68.0191 125.209 68.0191H124.234V69.347H124.164Z" fill="#333333"/>
</svg>
