<svg width="151" height="43" viewBox="0 0 151 43" fill="none" xmlns="http://www.w3.org/2000/svg">
<g clip-path="url(#clip0_185_17)">
<path d="M94.1138 18.2156C111.322 11.3406 122.031 7.38224 150.406 0.465576C134.989 1.46558 100.906 3.84058 77.4055 8.42391L94.1138 18.2156Z" fill="#333333"/>
<path d="M40.6139 41.0489H63.1139C67.5722 34.2989 71.9889 31.0072 77.1556 27.3406C73.2389 25.8406 69.3222 24.3822 65.3222 22.9656C50.9472 29.2989 42.9889 37.7989 40.6139 41.0489Z" fill="#333333"/>
<path d="M45.0305 16.5073C24.9888 23.674 13.8221 31.424 6.32214 41.049H31.1555C33.5721 37.674 42.7805 27.9657 60.1138 21.2157C55.3221 19.5907 47.0305 17.0073 45.0305 16.5073Z" fill="#333333"/>
<path d="M55.3638 1.38232H0.405518C55.7805 11.3823 82.4888 24.2573 125.406 42.4657C121.739 39.7157 62.5722 4.88232 55.3638 1.38232Z" fill="#333333"/>
</g>
<defs>
<clipPath id="clip0_185_17">
<rect width="150" height="42" fill="white" transform="translate(0.405518 0.465576)"/>
</clipPath>
</defs>
</svg>
