<svg width="114" height="39" viewBox="0 0 114 39" fill="none" xmlns="http://www.w3.org/2000/svg">
<path d="M110.797 19.0079H104.267C103.657 17.4219 102.925 16.1409 99.263 16.1409C96.761 16.1409 95.6625 17.1779 95.6625 18.2149C95.6625 19.3739 96.5779 20.2889 99.324 20.9599L105.243 22.5459C109.088 23.5829 110.98 26.6329 110.98 29.8659C110.98 31.6959 110.614 33.8309 108.905 35.6609C107.623 37.0029 105.671 38.7719 99.263 38.7719C90.4143 38.7719 87.5462 33.2209 87.5462 29.8049H94.381C95.0523 32.2449 96.761 33.2209 100.117 33.2209C102.436 33.2209 104.45 32.3669 104.45 30.5979C104.45 28.8899 102.986 28.2799 101.155 27.7919L96.5169 26.5109C94.2589 25.8399 92.3672 25.2909 91.0856 24.1319C87.6072 21.2039 87.8513 15.8969 91.6348 13.0909C93.7097 11.5659 95.8456 10.7729 99.263 10.7729C103.291 10.7729 105.549 11.9319 107.318 13.1519C108.844 14.2499 110.797 16.9339 110.797 19.0079ZM0.64624 0.158936C0.707265 0.402936 14.3159 38.4059 14.3159 38.4059H22.4322L34.9424 6.74694H112.566L113.177 0.158936H28.9619L18.5877 26.3889L9.2508 0.158936H0.64624ZM67.774 24.7419L77.9042 38.4059H84.2508V11.3829H76.9278V26.0839L67.774 11.3829H60.7561V38.4059H67.774V24.7419ZM113.36 37.0029C113.36 36.2099 112.689 35.5389 111.895 35.5389C111.102 35.5389 110.431 36.2099 110.431 37.0029C110.431 37.7959 111.102 38.4669 111.895 38.4669C112.75 38.4669 113.36 37.7959 113.36 37.0029C113.421 37.0029 113.421 37.0029 113.36 37.0029ZM113.238 37.0029C113.238 37.7349 112.689 38.2839 111.956 38.2839C111.224 38.2839 110.675 37.7349 110.675 37.0029C110.675 36.2709 111.224 35.7219 111.956 35.7219C112.628 35.7219 113.238 36.2709 113.238 37.0029ZM112.628 36.6979C112.628 36.3929 112.383 36.2099 112.078 36.2099H112.017H111.346V37.7349H111.712V37.2469H111.956L112.261 37.7349H112.628L112.261 37.1859C112.505 37.1249 112.628 36.9419 112.628 36.6979ZM112.261 36.6979C112.261 36.8199 112.139 36.9419 112.017 36.9419C112.017 36.9419 112.017 36.9419 111.956 36.9419H111.59V36.5149H111.895C112.017 36.4539 112.139 36.5759 112.2 36.6979C112.322 36.6979 112.322 36.6979 112.261 36.6979ZM29.145 38.4059H36.8952L38.3598 34.1969H48.6731L50.1377 38.4059H57.8269L48.0018 11.3829H39.7634L29.145 38.4059ZM40.5567 29.2559L43.547 20.2889L46.5372 29.2559H40.5567Z" fill="#333333"/>
</svg>
