<svg width="36" height="36" viewBox="0 0 36 36" fill="none" xmlns="http://www.w3.org/2000/svg">
<path d="M17.6083 24.3C15.9374 24.3 14.335 23.6363 13.1535 22.4548C11.972 21.2733 11.3083 19.6709 11.3083 18C11.3083 16.3291 11.972 14.7267 13.1535 13.5452C14.335 12.3637 15.9374 11.7 17.6083 11.7C19.2791 11.7 20.8815 12.3637 22.063 13.5452C23.2445 14.7267 23.9083 16.3291 23.9083 18C23.9083 19.6709 23.2445 21.2733 22.063 22.4548C20.8815 23.6363 19.2791 24.3 17.6083 24.3ZM30.9823 19.746C31.0543 19.17 31.1083 18.594 31.1083 18C31.1083 17.406 31.0543 16.812 30.9823 16.2L34.7803 13.266C35.1223 12.996 35.2123 12.51 34.9963 12.114L31.3963 5.886C31.1803 5.49 30.6943 5.328 30.2983 5.49L25.8163 7.29C24.8803 6.588 23.9083 5.976 22.7743 5.526L22.1083 0.756C22.0363 0.324 21.6583 0 21.2083 0H14.0083C13.5583 0 13.1803 0.324 13.1083 0.756L12.4423 5.526C11.3083 5.976 10.3363 6.588 9.40026 7.29L4.91826 5.49C4.52226 5.328 4.03626 5.49 3.82026 5.886L0.220256 12.114C-0.0137442 12.51 0.094256 12.996 0.436256 13.266L4.23426 16.2C4.16226 16.812 4.10826 17.406 4.10826 18C4.10826 18.594 4.16226 19.17 4.23426 19.746L0.436256 22.734C0.094256 23.004 -0.0137442 23.49 0.220256 23.886L3.82026 30.114C4.03626 30.51 4.52226 30.654 4.91826 30.51L9.40026 28.692C10.3363 29.412 11.3083 30.024 12.4423 30.474L13.1083 35.244C13.1803 35.676 13.5583 36 14.0083 36H21.2083C21.6583 36 22.0363 35.676 22.1083 35.244L22.7743 30.474C23.9083 30.006 24.8803 29.412 25.8163 28.692L30.2983 30.51C30.6943 30.654 31.1803 30.51 31.3963 30.114L34.9963 23.886C35.2123 23.49 35.1223 23.004 34.7803 22.734L30.9823 19.746Z" fill="#333333"/>
</svg>
