<svg width="30" height="38" viewBox="0 0 30 38" fill="none" xmlns="http://www.w3.org/2000/svg">
<path d="M15.1477 28.9C16.1025 28.9 17.0182 28.5207 17.6933 27.8456C18.3684 27.1705 18.7477 26.2548 18.7477 25.3C18.7477 23.302 17.1277 21.7 15.1477 21.7C14.1929 21.7 13.2773 22.0793 12.6021 22.7544C11.927 23.4296 11.5477 24.3452 11.5477 25.3C11.5477 26.2548 11.927 27.1705 12.6021 27.8456C13.2773 28.5207 14.1929 28.9 15.1477 28.9ZM25.9477 12.7C26.9025 12.7 27.8182 13.0793 28.4933 13.7544C29.1684 14.4296 29.5477 15.3452 29.5477 16.3V34.3C29.5477 35.2548 29.1684 36.1705 28.4933 36.8456C27.8182 37.5207 26.9025 37.9 25.9477 37.9H4.34771C3.39293 37.9 2.47726 37.5207 1.80213 36.8456C1.127 36.1705 0.747711 35.2548 0.747711 34.3V16.3C0.747711 14.302 2.36771 12.7 4.34771 12.7H6.14771V9.10001C6.14771 6.71306 7.09592 4.42387 8.78375 2.73605C10.4716 1.04822 12.7608 0.100006 15.1477 0.100006C16.3296 0.100006 17.4999 0.332798 18.5919 0.78509C19.6838 1.23738 20.6759 1.90032 21.5117 2.73605C22.3474 3.57177 23.0103 4.56392 23.4626 5.65585C23.9149 6.74779 24.1477 7.91811 24.1477 9.10001V12.7H25.9477ZM15.1477 3.70001C13.7155 3.70001 12.342 4.26893 11.3293 5.28163C10.3166 6.29433 9.74771 7.66784 9.74771 9.10001V12.7H20.5477V9.10001C20.5477 7.66784 19.9788 6.29433 18.9661 5.28163C17.9534 4.26893 16.5799 3.70001 15.1477 3.70001Z" fill="#333333"/>
</svg>
