<svg width="33" height="38" viewBox="0 0 33 38" fill="none" xmlns="http://www.w3.org/2000/svg">
<path d="M16.2085 21.7C13.8216 21.7 11.5324 20.7518 9.84455 19.064C8.15673 17.3761 7.20851 15.087 7.20851 12.7H10.8085C10.8085 14.1322 11.3774 15.5057 12.3901 16.5184C13.4028 17.5311 14.7763 18.1 16.2085 18.1C17.6407 18.1 19.0142 17.5311 20.0269 16.5184C21.0396 15.5057 21.6085 14.1322 21.6085 12.7H25.2085C25.2085 15.087 24.2603 17.3761 22.5725 19.064C20.8846 20.7518 18.5955 21.7 16.2085 21.7ZM16.2085 3.70001C17.6407 3.70001 19.0142 4.26893 20.0269 5.28163C21.0396 6.29432 21.6085 7.66784 21.6085 9.1H10.8085C10.8085 7.66784 11.3774 6.29432 12.3901 5.28163C13.4028 4.26893 14.7763 3.70001 16.2085 3.70001ZM28.8085 9.1H25.2085C25.2085 7.91811 24.9757 6.74778 24.5234 5.65585C24.0711 4.56392 23.4082 3.57177 22.5725 2.73604C21.7367 1.90032 20.7446 1.23738 19.6527 0.78509C18.5607 0.332798 17.3904 0.100006 16.2085 0.100006C13.8216 0.100006 11.5324 1.04822 9.84455 2.73604C8.15673 4.42387 7.20851 6.71306 7.20851 9.1H3.60851C1.61051 9.1 0.0085144 10.702 0.0085144 12.7V34.3C0.0085144 35.2548 0.387799 36.1705 1.06293 36.8456C1.73806 37.5207 2.65374 37.9 3.60851 37.9H28.8085C29.7633 37.9 30.679 37.5207 31.3541 36.8456C32.0292 36.1705 32.4085 35.2548 32.4085 34.3V12.7C32.4085 10.702 30.7885 9.1 28.8085 9.1Z" fill="#333333"/>
</svg>
