<svg width="41" height="41" viewBox="0 0 41 41" fill="none" xmlns="http://www.w3.org/2000/svg">
<path d="M20.4056 4.01392C11.2389 4.01392 3.73889 11.4972 3.73889 20.7139C3.73889 29.0472 9.83889 35.9639 17.8056 37.2139V25.5472H13.5722V20.7139H17.8056V17.0306C17.8056 12.8472 20.2889 10.5472 24.1056 10.5472C25.9222 10.5472 27.8222 10.8639 27.8222 10.8639V14.9806H25.7222C23.6556 14.9806 23.0056 16.2639 23.0056 17.5806V20.7139H27.6389L26.8889 25.5472H23.0056V37.2139C26.933 36.5937 30.5092 34.5898 33.0888 31.564C35.6683 28.5383 37.0811 24.69 37.0722 20.7139C37.0722 11.4972 29.5722 4.01392 20.4056 4.01392Z" fill="white"/>
</svg>
