<svg width="49" height="48" viewBox="0 0 49 48" fill="none" xmlns="http://www.w3.org/2000/svg">
<path d="M24.5 4.08C13.5 4.08 4.5 13.06 4.5 24.12C4.5 34.12 11.82 42.42 21.38 43.92V29.92H16.3V24.12H21.38V19.7C21.38 14.68 24.36 11.92 28.94 11.92C31.12 11.92 33.4 12.3 33.4 12.3V17.24H30.88C28.4 17.24 27.62 18.78 27.62 20.36V24.12H33.18L32.28 29.92H27.62V43.92C32.3329 43.1757 36.6244 40.771 39.7199 37.1401C42.8153 33.5092 44.5107 28.8913 44.5 24.12C44.5 13.06 35.5 4.08 24.5 4.08Z" fill="#333333"/>
</svg>
