<svg width="49" height="48" viewBox="0 0 49 48" fill="none" xmlns="http://www.w3.org/2000/svg">
<path d="M22.4943 6.12733C14.2036 7.04714 7.53508 13.8538 6.63392 22.1321C5.55253 31.3302 11.1397 39.2406 19.0699 41.816V37.5849C19.0699 37.5849 18.349 37.7689 17.4478 37.7689C14.9246 37.7689 13.8432 35.5613 13.663 34.2736C13.4827 33.5377 13.1223 32.9858 12.5816 32.434C12.0409 32.25 11.8606 32.25 11.8606 32.066C11.8606 31.6981 12.4013 31.6981 12.5816 31.6981C13.663 31.6981 14.5641 32.9858 14.9246 33.5377C15.8257 35.0094 16.9071 35.3774 17.4478 35.3774C18.1687 35.3774 18.7094 35.1934 19.0699 35.0094C19.2501 33.7217 19.7908 32.434 20.8722 31.6981C16.7269 30.7783 13.663 28.3868 13.663 24.3396C13.663 22.316 14.5641 20.2924 15.8257 18.8207C15.6455 18.4528 15.4653 17.533 15.4653 16.2453C15.4653 15.5094 15.4653 14.4056 16.006 13.3019C16.006 13.3019 18.5292 13.3019 21.0524 15.6934C21.9536 15.3255 23.2152 15.1415 24.4768 15.1415C25.7385 15.1415 27.0001 15.3255 28.0815 15.6934C30.4245 13.3019 33.128 13.3019 33.128 13.3019C33.4884 14.4056 33.4884 15.5094 33.4884 16.2453C33.4884 17.717 33.3082 18.4528 33.128 18.8207C34.3896 20.2924 35.2907 22.1321 35.2907 24.3396C35.2907 28.3868 32.2268 30.7783 28.0815 31.6981C29.1629 32.6179 29.8838 34.2736 29.8838 35.9292V42C37.2733 39.6085 42.5 32.6179 42.5 24.5236C42.5 13.4858 33.3082 4.83959 22.4943 6.12733Z" fill="#333333"/>
</svg>
