<svg width="41" height="41" viewBox="0 0 41 41" fill="none" xmlns="http://www.w3.org/2000/svg">
<path d="M20.4226 6.527C13.0531 7.34461 7.12552 13.3949 6.32449 20.7534C5.36325 28.9295 10.3296 35.961 17.3787 38.2503V34.4893C17.3787 34.4893 16.7379 34.6528 15.9368 34.6528C13.694 34.6528 12.7327 32.6905 12.5725 31.5459C12.4123 30.8918 12.0919 30.4012 11.6113 29.9107C11.1307 29.7471 10.9705 29.7471 10.9705 29.5836C10.9705 29.2566 11.4511 29.2566 11.6113 29.2566C12.5725 29.2566 13.3735 30.4012 13.694 30.8918C14.495 32.2 15.4562 32.527 15.9368 32.527C16.5777 32.527 17.0583 32.3635 17.3787 32.2C17.5389 31.0553 18.0195 29.9107 18.9807 29.2566C15.296 28.439 12.5725 26.3132 12.5725 22.7157C12.5725 20.9169 13.3735 19.1182 14.495 17.81C14.3348 17.483 14.1746 16.6654 14.1746 15.5207C14.1746 14.8666 14.1746 13.8855 14.6552 12.9044C14.6552 12.9044 16.8981 12.9044 19.141 15.0302C19.942 14.7031 21.0634 14.5396 22.1849 14.5396C23.3063 14.5396 24.4277 14.7031 25.389 15.0302C27.4717 12.9044 29.8747 12.9044 29.8747 12.9044C30.1952 13.8855 30.1952 14.8666 30.1952 15.5207C30.1952 16.8289 30.0349 17.483 29.8747 17.81C30.9962 19.1182 31.7972 20.7534 31.7972 22.7157C31.7972 26.3132 29.0737 28.439 25.389 29.2566C26.3502 30.0742 26.991 31.5459 26.991 33.0176V38.4138C33.5595 36.288 38.2054 30.0742 38.2054 22.8792C38.2054 13.0679 30.0349 5.38235 20.4226 6.527Z" fill="white"/>
</svg>
