<svg width="49" height="48" viewBox="0 0 49 48" fill="none" xmlns="http://www.w3.org/2000/svg">
<path d="M16.1 4H32.9C39.3 4 44.5 9.2 44.5 15.6V32.4C44.5 35.4765 43.2779 38.427 41.1024 40.6024C38.927 42.7779 35.9765 44 32.9 44H16.1C9.7 44 4.5 38.8 4.5 32.4V15.6C4.5 12.5235 5.72214 9.57298 7.89756 7.39756C10.073 5.22214 13.0235 4 16.1 4ZM15.7 8C13.7904 8 11.9591 8.75857 10.6088 10.1088C9.25857 11.4591 8.5 13.2904 8.5 15.2V32.8C8.5 36.78 11.72 40 15.7 40H33.3C35.2096 40 37.0409 39.2414 38.3912 37.8912C39.7414 36.5409 40.5 34.7096 40.5 32.8V15.2C40.5 11.22 37.28 8 33.3 8H15.7ZM35 11C35.663 11 36.2989 11.2634 36.7678 11.7322C37.2366 12.2011 37.5 12.837 37.5 13.5C37.5 14.163 37.2366 14.7989 36.7678 15.2678C36.2989 15.7366 35.663 16 35 16C34.337 16 33.7011 15.7366 33.2322 15.2678C32.7634 14.7989 32.5 14.163 32.5 13.5C32.5 12.837 32.7634 12.2011 33.2322 11.7322C33.7011 11.2634 34.337 11 35 11ZM24.5 14C27.1522 14 29.6957 15.0536 31.5711 16.9289C33.4464 18.8043 34.5 21.3478 34.5 24C34.5 26.6522 33.4464 29.1957 31.5711 31.0711C29.6957 32.9464 27.1522 34 24.5 34C21.8478 34 19.3043 32.9464 17.4289 31.0711C15.5536 29.1957 14.5 26.6522 14.5 24C14.5 21.3478 15.5536 18.8043 17.4289 16.9289C19.3043 15.0536 21.8478 14 24.5 14ZM24.5 18C22.9087 18 21.3826 18.6321 20.2574 19.7574C19.1321 20.8826 18.5 22.4087 18.5 24C18.5 25.5913 19.1321 27.1174 20.2574 28.2426C21.3826 29.3679 22.9087 30 24.5 30C26.0913 30 27.6174 29.3679 28.7426 28.2426C29.8679 27.1174 30.5 25.5913 30.5 24C30.5 22.4087 29.8679 20.8826 28.7426 19.7574C27.6174 18.6321 26.0913 18 24.5 18Z" fill="#333333"/>
</svg>
