<svg width="41" height="41" viewBox="0 0 41 41" fill="none" xmlns="http://www.w3.org/2000/svg">
<path d="M13.4056 3.94702H27.4056C32.7389 3.94702 37.0722 8.28035 37.0722 13.6137V27.6137C37.0722 30.1774 36.0538 32.6362 34.2409 34.4491C32.4281 36.2619 29.9693 37.2804 27.4056 37.2804H13.4056C8.07223 37.2804 3.73889 32.947 3.73889 27.6137V13.6137C3.73889 11.0499 4.75734 8.59117 6.57019 6.77832C8.38304 4.96547 10.8418 3.94702 13.4056 3.94702ZM13.0722 7.28035C11.4809 7.28035 9.9548 7.9125 8.82958 9.03771C7.70437 10.1629 7.07222 11.6891 7.07222 13.2804V27.947C7.07222 31.2637 9.75556 33.947 13.0722 33.947H27.7389C29.3302 33.947 30.8563 33.3149 31.9815 32.1897C33.1068 31.0644 33.7389 29.5383 33.7389 27.947V13.2804C33.7389 9.96369 31.0556 7.28035 27.7389 7.28035H13.0722ZM29.1556 9.78035C29.7081 9.78035 30.238 9.99985 30.6287 10.3905C31.0194 10.7812 31.2389 11.3112 31.2389 11.8637C31.2389 12.4162 31.0194 12.9461 30.6287 13.3368C30.238 13.7275 29.7081 13.947 29.1556 13.947C28.603 13.947 28.0731 13.7275 27.6824 13.3368C27.2917 12.9461 27.0722 12.4162 27.0722 11.8637C27.0722 11.3112 27.2917 10.7812 27.6824 10.3905C28.0731 9.99985 28.603 9.78035 29.1556 9.78035ZM20.4056 12.2804C22.6157 12.2804 24.7353 13.1583 26.2981 14.7211C27.8609 16.2839 28.7389 18.4036 28.7389 20.6137C28.7389 22.8238 27.8609 24.9434 26.2981 26.5062C24.7353 28.069 22.6157 28.947 20.4056 28.947C18.1954 28.947 16.0758 28.069 14.513 26.5062C12.9502 24.9434 12.0722 22.8238 12.0722 20.6137C12.0722 18.4036 12.9502 16.2839 14.513 14.7211C16.0758 13.1583 18.1954 12.2804 20.4056 12.2804ZM20.4056 15.6137C19.0795 15.6137 17.8077 16.1405 16.87 17.0782C15.9323 18.0158 15.4056 19.2876 15.4056 20.6137C15.4056 21.9398 15.9323 23.2115 16.87 24.1492C17.8077 25.0869 19.0795 25.6137 20.4056 25.6137C21.7316 25.6137 23.0034 25.0869 23.9411 24.1492C24.8788 23.2115 25.4056 21.9398 25.4056 20.6137C25.4056 19.2876 24.8788 18.0158 23.9411 17.0782C23.0034 16.1405 21.7316 15.6137 20.4056 15.6137Z" fill="white"/>
</svg>
