<svg width="39" height="40" viewBox="0 0 39 40" fill="none" xmlns="http://www.w3.org/2000/svg">
<circle cx="19.3847" cy="20" r="19.3847" fill="#333333"/>
<path d="M15.1927 30.2H11.5087L13.9087 16.112C14.0287 15.144 14.3207 14.312 14.7847 13.616C15.2567 12.92 15.8687 12.388 16.6207 12.02C17.3807 11.644 18.2527 11.464 19.2367 11.48C19.5647 11.488 19.8847 11.516 20.1967 11.564C20.5167 11.612 20.8327 11.672 21.1447 11.744L20.8447 14.54C20.6847 14.5 20.5207 14.468 20.3527 14.444C20.1927 14.42 20.0287 14.404 19.8607 14.396C19.4847 14.396 19.1407 14.46 18.8287 14.588C18.5167 14.716 18.2527 14.908 18.0367 15.164C17.8287 15.412 17.6887 15.728 17.6167 16.112L15.1927 30.2ZM19.9327 17.216L19.4527 19.844H11.4607L11.9287 17.216H19.9327ZM23.0474 30.2H19.3634L21.7634 16.112C21.8834 15.144 22.1754 14.312 22.6394 13.616C23.1114 12.92 23.7234 12.388 24.4754 12.02C25.2354 11.644 26.1074 11.464 27.0914 11.48C27.4194 11.488 27.7394 11.516 28.0514 11.564C28.3714 11.612 28.6874 11.672 28.9994 11.744L28.6994 14.54C28.5394 14.5 28.3754 14.468 28.2074 14.444C28.0474 14.42 27.8834 14.404 27.7154 14.396C27.3394 14.396 26.9954 14.46 26.6834 14.588C26.3714 14.716 26.1074 14.908 25.8914 15.164C25.6834 15.412 25.5434 15.728 25.4714 16.112L23.0474 30.2ZM27.7874 17.216L27.3074 19.844H19.3154L19.7834 17.216H27.7874Z" fill="white"/>
</svg>
