<svg width="49" height="48" viewBox="0 0 49 48" fill="none" xmlns="http://www.w3.org/2000/svg">
<path d="M11.5 14C10.7044 14 9.94129 13.6839 9.37868 13.1213C8.81607 12.5587 8.5 11.7956 8.5 11C8.5 10.2044 8.81607 9.44129 9.37868 8.87868C9.94129 8.31607 10.7044 8 11.5 8C12.2956 8 13.0587 8.31607 13.6213 8.87868C14.1839 9.44129 14.5 10.2044 14.5 11C14.5 11.7956 14.1839 12.5587 13.6213 13.1213C13.0587 13.6839 12.2956 14 11.5 14ZM43.32 23.16L25.32 5.16C24.6 4.44 23.6 4 22.5 4H8.5C6.28 4 4.5 5.78 4.5 8V22C4.5 23.1 4.94 24.1 5.68 24.82L23.66 42.82C24.4 43.54 25.4 44 26.5 44C27.6 44 28.6 43.54 29.32 42.82L43.32 28.82C44.06 28.1 44.5 27.1 44.5 26C44.5 24.88 44.04 23.88 43.32 23.16Z" fill="#333333"/>
</svg>
