<svg width="44" height="44" viewBox="0 0 44 44" fill="none" xmlns="http://www.w3.org/2000/svg">
<path d="M35 5.79999H9.80001C7.80201 5.79999 6.20001 7.40199 6.20001 9.39999V16.6H9.80001V9.39999H35V34.6H9.80001V27.4H6.20001V34.6C6.20001 35.5548 6.5793 36.4704 7.25443 37.1456C7.92956 37.8207 8.84523 38.2 9.80001 38.2H35C35.9548 38.2 36.8705 37.8207 37.5456 37.1456C38.2207 36.4704 38.6 35.5548 38.6 34.6V9.39999C38.6 7.40199 36.98 5.79999 35 5.79999ZM18.944 28.444L21.5 31L30.5 22L21.5 13L18.944 15.538L23.606 20.2H6.20001V23.8H23.606L18.944 28.444Z" fill="#333333"/>
</svg>
