<svg width="48" height="48" viewBox="0 0 48 48" fill="none" xmlns="http://www.w3.org/2000/svg">
<path d="M19 6C22.4478 6 25.7544 7.36964 28.1924 9.80761C30.6304 12.2456 32 15.5522 32 19C32 22.22 30.82 25.18 28.88 27.46L29.42 28H31L41 38L38 41L28 31V29.42L27.46 28.88C25.18 30.82 22.22 32 19 32C15.5522 32 12.2456 30.6304 9.80761 28.1924C7.36964 25.7544 6 22.4478 6 19C6 15.5522 7.36964 12.2456 9.80761 9.80761C12.2456 7.36964 15.5522 6 19 6ZM19 10C14 10 10 14 10 19C10 24 14 28 19 28C24 28 28 24 28 19C28 14 24 10 19 10Z" fill="#FFFFFF"/>
</svg>
