<svg width="49" height="48" viewBox="0 0 49 48" fill="none" xmlns="http://www.w3.org/2000/svg">
<path d="M45.42 12C43.88 12.7 42.22 13.16 40.5 13.38C42.26 12.32 43.62 10.64 44.26 8.62C42.6 9.62 40.76 10.32 38.82 10.72C37.24 9 35.02 8 32.5 8C27.8 8 23.96 11.84 23.96 16.58C23.96 17.26 24.04 17.92 24.18 18.54C17.06 18.18 10.72 14.76 6.49999 9.58C5.75999 10.84 5.33999 12.32 5.33999 13.88C5.33999 16.86 6.83999 19.5 9.15999 21C7.73999 21 6.41999 20.6 5.25999 20C5.25999 20 5.25999 20 5.25999 20.06C5.25999 24.22 8.21999 27.7 12.14 28.48C11.42 28.68 10.66 28.78 9.87999 28.78C9.33999 28.78 8.79999 28.72 8.27999 28.62C9.35999 32 12.5 34.52 16.28 34.58C13.36 36.9 9.65999 38.26 5.61999 38.26C4.93999 38.26 4.25999 38.22 3.57999 38.14C7.37999 40.58 11.9 42 16.74 42C32.5 42 41.16 28.92 41.16 17.58C41.16 17.2 41.16 16.84 41.14 16.46C42.82 15.26 44.26 13.74 45.42 12Z" fill="#333333"/>
</svg>
