<svg width="41" height="41" viewBox="0 0 41 41" fill="none" xmlns="http://www.w3.org/2000/svg">
<path d="M37.8388 10.6139C36.5555 11.1972 35.1722 11.5805 33.7388 11.7639C35.2055 10.8805 36.3388 9.48052 36.8722 7.79718C35.4888 8.63052 33.9555 9.21385 32.3388 9.54718C31.0222 8.11385 29.1722 7.28052 27.0722 7.28052C23.1555 7.28052 19.9555 10.4805 19.9555 14.4305C19.9555 14.9972 20.0222 15.5472 20.1388 16.0639C14.2055 15.7639 8.92217 12.9139 5.4055 8.59718C4.78883 9.64718 4.43883 10.8805 4.43883 12.1805C4.43883 14.6639 5.68883 16.8639 7.62217 18.1139C6.43883 18.1139 5.33883 17.7805 4.37217 17.2805C4.37217 17.2805 4.37217 17.2805 4.37217 17.3305C4.37217 20.7972 6.83883 23.6972 10.1055 24.3472C9.5055 24.5138 8.87217 24.5972 8.22217 24.5972C7.77217 24.5972 7.32217 24.5472 6.88883 24.4639C7.78883 27.2805 10.4055 29.3805 13.5555 29.4305C11.1222 31.3639 8.03883 32.4972 4.67217 32.4972C4.1055 32.4972 3.53883 32.4639 2.97217 32.3972C6.13883 34.4305 9.9055 35.6138 13.9388 35.6138C27.0722 35.6138 34.2888 24.7139 34.2888 15.2639C34.2888 14.9472 34.2888 14.6472 34.2722 14.3305C35.6722 13.3305 36.8722 12.0639 37.8388 10.6139Z" fill="white"/>
</svg>
